<?xml version="1.0" encoding="UTF-8"?>
<!DOCTYPE svg PUBLIC "-//W3C//DTD SVG 1.1//EN" "http://www.w3.org/Graphics/SVG/1.1/DTD/svg11.dtd">
<!-- Creator: CorelDRAW X7 -->
<svg xmlns="http://www.w3.org/2000/svg" xml:space="preserve" width="0.677079in" height="0.677079in" version="1.1" style="shape-rendering:geometricPrecision; text-rendering:geometricPrecision; image-rendering:optimizeQuality; fill-rule:evenodd; clip-rule:evenodd"
viewBox="0 0 224 224"
 xmlns:xlink="http://www.w3.org/1999/xlink">
 <defs>
  <style type="text/css">
   <![CDATA[
    .fil0 {fill:#CF3D28}
    .fil1 {fill:#FEFEFE}
   ]]>
  </style>
 </defs>
 <g id="Layer_x0020_1">
  <metadata id="CorelCorpID_0Corel-Layer"/>
  <g id="_988335792">
   <circle class="fil0" cx="112" cy="112" r="112"/>
   <path class="fil1" d="M103 115c-1,3 -2,5 -1,9 1,3 3,5 4,6 -3,1 -6,1 -9,1 -3,0 -5,1 -8,1 -9,3 -18,8 -21,17 -4,10 3,19 13,23 14,5 34,3 45,-6 10,-7 15,-20 5,-32 -4,-5 -13,-11 -15,-13 -3,-6 3,-10 5,-12 4,-3 7,-6 9,-11 2,-4 2,-11 0,-16 -2,-4 -3,-6 -6,-8 -1,-1 -2,-2 -2,-3 10,0 6,1 17,-5 -2,-1 -31,0 -35,0 -11,0 -20,4 -25,11 -9,12 -6,30 8,36 5,2 10,2 16,2zm1 54c12,0 23,-4 23,-16 -1,-6 -4,-9 -7,-12 -2,-1 -4,-3 -5,-4 -4,-2 -4,-3 -7,-3 -13,0 -27,4 -28,16 -2,12 12,19 24,19zm-7 -98c-12,3 -11,16 -8,25 2,9 10,18 20,15 10,-3 12,-13 8,-24 -3,-8 -9,-18 -20,-16z"/>
   <polygon class="fil1" points="139,121 154,121 154,136 161,136 161,121 175,121 175,114 161,114 161,100 154,100 154,114 139,114 "/>
  </g>
 </g>
</svg>
