<?xml version="1.0" encoding="UTF-8"?>
<!DOCTYPE svg PUBLIC "-//W3C//DTD SVG 1.1//EN" "http://www.w3.org/Graphics/SVG/1.1/DTD/svg11.dtd">
<!-- Creator: CorelDRAW X7 -->
<svg xmlns="http://www.w3.org/2000/svg" xml:space="preserve" width="0.68148in" height="0.68148in" version="1.1" style="shape-rendering:geometricPrecision; text-rendering:geometricPrecision; image-rendering:optimizeQuality; fill-rule:evenodd; clip-rule:evenodd"
viewBox="0 0 333 333"
 xmlns:xlink="http://www.w3.org/1999/xlink">
 <defs>
  <style type="text/css">
   <![CDATA[
    .fil0 {fill:#01A2D3}
    .fil1 {fill:white}
   ]]>
  </style>
 </defs>
 <g id="Layer_x0020_1">
  <metadata id="CorelCorpID_0Corel-Layer"/>
  <g id="_827780608">
   <circle class="fil0" cx="167" cy="167" r="167"/>
   <path class="fil1" d="M241 175c3,-8 4,-3 12,-6 5,-2 8,-5 13,-8 -7,0 -14,-1 -21,-2 7,-3 14,-6 20,-11 -7,2 -15,3 -22,0 -1,-1 -2,-2 -2,-3 -4,-24 -17,-32 -42,-36 9,0 17,-4 16,-9 -4,0 -8,1 -13,1 3,-1 4,-3 4,-5 -4,2 -9,4 -13,6 0,-2 2,-2 -2,-3 -17,14 -21,27 -30,47 -4,-2 -5,-6 -14,-11 -12,-7 -39,-18 -53,-23 0,6 2,11 5,15 2,3 7,7 10,10 -3,0 -7,1 -10,1 7,7 14,14 21,21 -4,2 -8,4 -12,5 3,10 12,13 24,13 -16,11 -4,13 6,18 -11,13 -36,20 -53,13 -6,-2 -12,-5 -17,-8 6,11 24,24 38,30 18,6 38,9 59,5 33,-6 68,-29 76,-60z"/>
  </g>
 </g>
</svg>
