<?xml version="1.0" encoding="UTF-8"?>
<!DOCTYPE svg PUBLIC "-//W3C//DTD SVG 1.1//EN" "http://www.w3.org/Graphics/SVG/1.1/DTD/svg11.dtd">
<!-- Creator: CorelDRAW X7 -->
<svg xmlns="http://www.w3.org/2000/svg" xml:space="preserve" width="0.18924in" height="0.22452in" version="1.1" style="shape-rendering:geometricPrecision; text-rendering:geometricPrecision; image-rendering:optimizeQuality; fill-rule:evenodd; clip-rule:evenodd"
viewBox="0 0 19 22"
 xmlns:xlink="http://www.w3.org/1999/xlink">
 <defs>
  <style type="text/css">
   <![CDATA[
    .fil0 {fill:gray}
   ]]>
  </style>
 </defs>
 <g id="Layer_x0020_1">
  <metadata id="CorelCorpID_0Corel-Layer"/>
  <path class="fil0" d="M0 0l19 0 0 22 -19 0 0 -22zm15 20c0,-2 -2,-3 -4,-3l0 -1c1,-1 1,-2 1,-2 1,0 2,-2 0,-2 1,-3 0,-5 -3,-5 0,0 -3,0 -2,5 -2,0 -1,2 0,2 0,1 0,1 1,2l0 1c-3,0 -4,1 -5,3l-1 0 0 -14 15 0 0 14 -2 0zm-10 -19l9 0 0 2 -9 0 0 -2z"/>
 </g>
</svg>
