<?xml version="1.0" encoding="UTF-8"?>
<!DOCTYPE svg PUBLIC "-//W3C//DTD SVG 1.1//EN" "http://www.w3.org/Graphics/SVG/1.1/DTD/svg11.dtd">
<!-- Creator: CorelDRAW X7 -->
<svg xmlns="http://www.w3.org/2000/svg" xml:space="preserve" width="0.146232in" height="0.146228in" version="1.1" style="shape-rendering:geometricPrecision; text-rendering:geometricPrecision; image-rendering:optimizeQuality; fill-rule:evenodd; clip-rule:evenodd"
viewBox="0 0 4 4"
 xmlns:xlink="http://www.w3.org/1999/xlink">
 <defs>
  <style type="text/css">
   <![CDATA[
    .fil0 {fill:#666666}
   ]]>
  </style>
 </defs>
 <g id="Layer_x0020_1">
  <metadata id="CorelCorpID_0Corel-Layer"/>
  <path class="fil0" d="M0 0l3 0c0,0 1,0 1,0l0 3c0,0 -1,1 -1,1l-3 0c0,0 0,-1 0,-1l0 -3c0,0 0,0 0,0zm3 0c0,0 0,0 0,0 0,1 0,1 0,1 0,0 -1,0 -1,-1 0,0 1,0 1,0zm-2 0c0,0 0,0 0,0 0,1 0,1 0,1 0,0 0,0 0,-1 0,0 0,0 0,0zm1 3l1 0 0 0 -1 0 0 0zm-2 -2l1 0 0 1 -1 0 0 -1zm3 2l0 0 0 0 0 0 0 0zm-2 0l1 0 0 0 -1 0 0 0zm-1 0l1 0 0 0 -1 0 0 0zm0 -1l1 0 0 0 -1 0 0 0zm1 0l1 0 0 0 -1 0 0 0zm1 0l1 0 0 0 -1 0 0 0zm1 0l0 0 0 0 0 0 0 0zm0 -1l0 0 0 1 0 0 0 -1zm-1 0l1 0 0 1 -1 0 0 -1zm-1 0l1 0 0 1 -1 0 0 -1z"/>
 </g>
</svg>
