<?xml version="1.0" encoding="UTF-8"?>
<!DOCTYPE svg PUBLIC "-//W3C//DTD SVG 1.1//EN" "http://www.w3.org/Graphics/SVG/1.1/DTD/svg11.dtd">
<!-- Creator: CorelDRAW X7 -->
<svg xmlns="http://www.w3.org/2000/svg" xml:space="preserve" width="0.441449in" height="0.517882in" version="1.1" style="shape-rendering:geometricPrecision; text-rendering:geometricPrecision; image-rendering:optimizeQuality; fill-rule:evenodd; clip-rule:evenodd"
viewBox="0 0 34 39"
 xmlns:xlink="http://www.w3.org/1999/xlink">
 <defs>
  <style type="text/css">
   <![CDATA[
    .fil0 {fill:gray}
   ]]>
  </style>
 </defs>
 <g id="Layer_x0020_1">
  <metadata id="CorelCorpID_0Corel-Layer"/>
  <g id="_827782112">
   <path class="fil0" d="M33 34c0,-2 -1,-4 -3,-5l-5 5c3,0 5,0 8,0zm-11 -8l-1 0 0 -3c2,-2 3,-4 3,-5 2,-1 5,-6 0,-6 2,-8 -2,-12 -8,-12 -1,0 -9,1 -8,12 -4,0 -2,5 1,6 1,2 1,4 3,5l0 3c-7,1 -12,3 -12,8 5,0 10,0 15,0l1 0 6 -8z"/>
   <path class="fil0" d="M29 19l5 4 -13 15 -5 1 1 -5 12 -15zm1 4l1 1 -10 12 -1 -1 10 -12z"/>
  </g>
 </g>
</svg>
