<?xml version="1.0" encoding="UTF-8"?>
<!DOCTYPE svg PUBLIC "-//W3C//DTD SVG 1.1//EN" "http://www.w3.org/Graphics/SVG/1.1/DTD/svg11.dtd">
<!-- Creator: CorelDRAW X7 -->
<svg xmlns="http://www.w3.org/2000/svg" xml:space="preserve" width="0.421874in" height="0.438102in" version="1.1" style="shape-rendering:geometricPrecision; text-rendering:geometricPrecision; image-rendering:optimizeQuality; fill-rule:evenodd; clip-rule:evenodd"
viewBox="0 0 365 379"
 xmlns:xlink="http://www.w3.org/1999/xlink">
 <defs>
  <style type="text/css">
   <![CDATA[
    .fil0 {fill:gray}
   ]]>
  </style>
 </defs>
 <g id="Layer_x0020_1">
  <metadata id="CorelCorpID_0Corel-Layer"/>
  <path class="fil0" d="M21 0l323 0c12,0 21,9 21,21l0 246c0,12 -9,21 -21,21l-230 0 -89 91 1 -91 -5 0c-12,0 -21,-9 -21,-21l0 -246c0,-12 9,-21 21,-21zm162 62l24 61 66 4 -51 42 16 64 -55 -35 -56 35 16 -64 -50 -42 65 -4 25 -61z"/>
 </g>
</svg>
