<?xml version="1.0" encoding="UTF-8"?>
<!DOCTYPE svg PUBLIC "-//W3C//DTD SVG 1.1//EN" "http://www.w3.org/Graphics/SVG/1.1/DTD/svg11.dtd">
<!-- Creator: CorelDRAW X7 -->
<svg xmlns="http://www.w3.org/2000/svg" xml:space="preserve" width="1.23815in" height="1.38897in" version="1.1" style="shape-rendering:geometricPrecision; text-rendering:geometricPrecision; image-rendering:optimizeQuality; fill-rule:evenodd; clip-rule:evenodd"
viewBox="0 0 1752 1966"
 xmlns:xlink="http://www.w3.org/1999/xlink">
 <defs>
  <style type="text/css">
   <![CDATA[
    .fil3 {fill:#333333}
    .fil2 {fill:#4D4D4D}
    .fil8 {fill:#666666}
    .fil6 {fill:#6B516B}
    .fil5 {fill:#735773}
    .fil7 {fill:#8C688C}
    .fil1 {fill:#B3B3B3}
    .fil0 {fill:#CCCCCC}
    .fil4 {fill:#E6E6E6}
   ]]>
  </style>
 </defs>
 <g id="Layer_x0020_1">
  <metadata id="CorelCorpID_0Corel-Layer"/>
  <g id="_1184388400">
   <g>
    <polygon class="fil0" points="1492,1912 1494,1805 533,1169 367,1052 359,1060 263,1194 267,1201 1193,1792 1381,1916 "/>
    <path class="fil1" d="M376 1181l72 -172 641 -343c1,7 1,11 3,19l-2 109 -610 392 -104 -5z"/>
   </g>
   <g>
    <polygon class="fil2" points="1619,158 1525,210 1455,1360 1437,1561 1448,1565 1612,1582 1616,1574 1665,477 1678,252 "/>
    <path class="fil3" d="M1544 1490l-185 24 -617 -384c5,-5 9,-7 14,-12l96 -53 645 332 47 93z"/>
   </g>
   <polygon class="fil4" points="1354,1966 744,1626 0,1187 1089,577 1089,925 659,1171 1738,1805 1539,1884 379,1179 1087,771 1089,718 287,1182 1491,1912 "/>
   <g>
    <polygon class="fil5" points="35,927 127,982 1158,468 1342,383 1339,372 1272,221 1263,221 288,727 86,829 "/>
    <path class="fil6" d="M1226 326l113 148 -24 727c-7,-3 -10,-5 -17,-7l-94 -57 -35 -724 57 -87z"/>
   </g>
   <path class="fil7" d="M60 778l591 -355 773 -423 -26 1251 -128 -78 0 -925 -1232 676 22 -146zm1165 368l-136 -82 0 -487 -1089 610 30 -202 1197 -656 -2 817z"/>
   <polygon class="fil8" points="1746,259 1752,950 1737,1805 658,1171 969,992 1397,1248 1424,0 1573,121 1542,1487 835,1077 788,1102 1591,1565 1621,158 "/>
  </g>
 </g>
</svg>
