<?xml version="1.0" encoding="UTF-8"?>
<!DOCTYPE svg PUBLIC "-//W3C//DTD SVG 1.1//EN" "http://www.w3.org/Graphics/SVG/1.1/DTD/svg11.dtd">
<!-- Creator: CorelDRAW X7 -->
<svg xmlns="http://www.w3.org/2000/svg" xml:space="preserve" width="0.260457in" height="0.112201in" version="1.1" style="shape-rendering:geometricPrecision; text-rendering:geometricPrecision; image-rendering:optimizeQuality; fill-rule:evenodd; clip-rule:evenodd"
viewBox="0 0 45 19"
 xmlns:xlink="http://www.w3.org/1999/xlink">
 <defs>
  <style type="text/css">
   <![CDATA[
    .fil3 {fill:#333333}
    .fil2 {fill:#4D4D4D}
    .fil8 {fill:#666666}
    .fil6 {fill:#6B516B}
    .fil5 {fill:#735773}
    .fil7 {fill:#8C688C}
    .fil1 {fill:#B3B3B3}
    .fil0 {fill:#CCCCCC}
    .fil4 {fill:#E6E6E6}
    .fil9 {fill:#4D4D4D;fill-rule:nonzero}
   ]]>
  </style>
 </defs>
 <g id="Layer_x0020_1">
  <metadata id="CorelCorpID_0Corel-Layer"/>
  <g id="_1127990576">
   <g>
    <g>
     <polygon class="fil0" points="15,19 15,18 5,11 4,10 4,10 3,12 3,12 12,18 14,19 "/>
     <path class="fil1" d="M4 12l0 -2 7 -3c0,0 0,0 0,0l0 1 -6 4 -1 0z"/>
    </g>
    <g>
     <polygon class="fil2" points="16,2 15,2 14,13 14,15 14,15 16,15 16,15 16,5 16,2 "/>
     <path class="fil3" d="M15 15l-2 0 -6 -4c0,0 0,0 0,0l1 -1 7 4 0 1z"/>
    </g>
    <polygon class="fil4" points="13,19 7,16 0,12 11,6 11,9 6,11 17,18 15,18 4,12 11,8 11,7 3,12 15,19 "/>
    <g>
     <polygon class="fil5" points="0,9 1,10 11,5 13,4 13,4 12,2 12,2 3,7 1,8 "/>
     <path class="fil6" d="M12 3l1 2 0 7c0,0 0,0 0,0l-1 -1 -1 -7 1 -1z"/>
    </g>
    <path class="fil7" d="M1 8l5 -4 8 -4 0 12 -2 -1 0 -9 -12 7 1 -1zm11 3l-1 -1 0 -4 -11 6 0 -2 12 -7 0 8z"/>
    <polygon class="fil8" points="17,3 17,9 17,18 6,11 9,10 14,12 14,0 15,1 15,15 8,11 8,11 16,15 16,2 "/>
   </g>
   <path class="fil9" d="M22 10l-1 0 0 -3 0 0 0 0 0 -4 1 0 0 7zm14 5l2 0 1 3 0 0 -1 -2 -2 0 0 2 -1 0 1 -3zm0 0l1 -3 1 3 -2 0zm2 0l-1 -2 0 2 1 0zm0 -4l2 7 -1 0 -2 -7 0 0 -2 7 -1 0 3 -7 0 0 0 0 0 0 0 0 1 0zm-15 4l3 0 0 3 -1 0 0 -2 -1 0 -2 2 0 0 1 -3zm1 0l2 -3 0 3 -2 0zm1 0l0 -2 -1 2 1 0zm2 -4l0 7 -1 0 0 -7 0 0 -4 7 -1 0 4 -7c1,0 1,0 2,0zm-5 -8l0 0 0 3 3 -3 1 0 -4 4 0 -4zm1 3l3 4 -1 0 -2 -3 -1 1 0 2 0 0 0 -3 1 -1zm3 -3l0 0 -2 3 2 4 0 0 -3 -4 3 -3zm1 6l4 0 0 1 -4 0 0 -7 4 0 0 0 -4 0 0 3 0 0 0 3zm4 -2l-3 0 0 2 3 0 0 0 -3 0 0 -3 3 0 0 1zm0 -3l-3 0 0 2 3 0 0 0 -3 0 0 -3 3 0 0 1zm3 6l0 0 0 -4 -3 -3 1 0 2 3 0 4zm0 -4l-2 -3 1 0 1 2 2 -2 1 0 -3 3zm3 -3l1 0 -3 3 0 4 0 0 0 -4 2 -3zm-9 8l0 0 0 6 3 0 0 0 -3 0 0 -6zm0 6l3 0 0 1 -4 0 0 -7 1 0 0 6zm4 -6l0 7 0 0 0 -7 0 0zm1 0l0 0 0 7 0 0 0 -7zm11 3c0,1 1,1 1,2 0,0 -1,1 -1,1 0,0 -1,1 -2,1 0,0 -1,-1 -1,-1 -1,0 -1,-1 -1,-1l0 -1 1 0 0 1c0,0 0,1 0,1 0,0 1,0 1,0 1,0 1,0 1,0 0,0 1,0 1,0 0,0 0,-1 0,-1 0,0 0,0 0,0 0,-1 0,-1 0,-1 0,0 0,0 0,0 -1,-1 -1,-1 -1,-1 0,0 0,0 0,0l-1 0c0,0 0,0 0,0 0,0 0,0 -1,0 0,0 0,-1 0,-1 0,0 0,0 0,0 0,-1 0,-1 0,-1 0,0 0,0 0,0 0,0 1,-1 1,-1 0,0 0,0 0,0 1,0 1,0 1,1 1,0 1,0 1,1l0 0 -1 0 0 0c0,-1 0,-1 0,-1 0,0 0,0 0,0 0,0 0,0 0,0 0,0 -1,0 -1,0 0,0 0,0 0,0 0,0 0,0 0,0 -1,0 -1,0 -1,0 0,0 0,1 0,1 0,0 0,0 0,0 1,0 1,0 1,0 0,0 0,1 0,1 0,0 0,0 1,0l0 0c0,0 0,0 0,0 0,0 1,0 1,0zm-3 0c-1,0 -1,-1 -1,-1 0,-1 0,-1 0,-1 0,0 1,-1 1,-1 0,0 0,0 0,0 1,0 1,0 1,0 1,0 1,0 1,0 1,0 1,0 1,0 0,1 1,1 1,2l0 0 -1 0 0 0c0,-1 0,-1 0,-2 -1,0 -1,0 -2,0 0,0 -1,0 -1,1 0,0 0,0 0,1 0,0 0,0 0,0 0,1 0,1 0,1 0,0 1,0 1,0 0,0 0,0 0,0l0 0c1,0 1,0 1,0 0,0 0,1 0,1 0,0 1,0 1,0 0,0 0,0 0,1 0,0 0,0 -1,1 0,0 0,0 -1,0 0,0 0,0 -1,0 0,-1 0,-1 0,-1l0 -1 0 0 0 1c0,0 0,0 1,0 0,1 0,1 0,1 0,0 0,0 0,0 1,0 1,0 1,0 0,0 0,-1 0,-1 0,0 0,0 0,0 0,0 0,0 0,0 0,-1 0,-1 0,-1 0,0 0,0 0,0 0,0 0,0 0,0 0,0 -1,0 -1,0l0 0c0,0 0,-1 0,-1 -1,0 -1,0 -1,0z"/>
  </g>
 </g>
</svg>
