<?xml version="1.0" encoding="UTF-8"?>
<!DOCTYPE svg PUBLIC "-//W3C//DTD SVG 1.1//EN" "http://www.w3.org/Graphics/SVG/1.1/DTD/svg11.dtd">
<!-- Creator: CorelDRAW X7 -->
<svg xmlns="http://www.w3.org/2000/svg" xml:space="preserve" width="0.427087in" height="0.427087in" version="1.1" style="shape-rendering:geometricPrecision; text-rendering:geometricPrecision; image-rendering:optimizeQuality; fill-rule:evenodd; clip-rule:evenodd"
viewBox="0 0 16 16"
 xmlns:xlink="http://www.w3.org/1999/xlink">
 <defs>
  <style type="text/css">
   <![CDATA[
    .fil2 {fill:#01A2D3}
    .fil0 {fill:#CCCCCC}
    .fil1 {fill:white}
   ]]>
  </style>
 </defs>
 <g id="Layer_x0020_1">
  <metadata id="CorelCorpID_0Corel-Layer"/>
  <g id="_988341328">
   <circle class="fil0" cx="8" cy="8" r="8"/>
   <g>
    <path class="fil1" d="M12 14c-1,1 -2,2 -4,2 -2,0 -3,-1 -5,-2 1,0 2,0 3,0l0 -2c0,1 1,1 2,1 1,0 1,0 2,-1l0 2c1,0 2,0 2,0z"/>
    <path class="fil1" d="M8 13c-2,0 -2,-1 -3,-2 -1,-1 -2,-3 0,-3 -1,-4 3,-5 3,-5 2,0 4,2 3,5 2,0 1,2 0,3 0,0 -1,2 -3,2z"/>
   </g>
  </g>
  <g id="_988335248">
   <circle class="fil0" cx="8" cy="8" r="8"/>
   <g>
    <path class="fil1" d="M12 14c-1,1 -2,2 -4,2 -2,0 -3,-1 -5,-2 1,0 2,0 3,0l0 -2c0,1 1,1 2,1 1,0 1,0 2,-1l0 2c1,0 2,0 2,0z"/>
    <path class="fil1" d="M8 13c-2,0 -2,-1 -3,-2 -1,-1 -2,-3 0,-3 -1,-4 3,-5 3,-5 2,0 4,2 3,5 2,0 1,2 0,3 0,0 -1,2 -3,2z"/>
   </g>
  </g>
  <circle class="fil2" cx="8" cy="8" r="8"/>
  <g id="_988335536">
   <path class="fil1" d="M6 7l4 0 0 4 -4 0 0 -4zm2 1c0,0 1,1 1,1 0,0 -1,0 -1,1l0 0 -1 0 1 0c-1,0 -1,-1 -1,-1 0,0 1,-1 1,-1z"/>
   <path class="fil1" d="M8 5l0 0c1,0 1,0 1,1l0 1 0 0 0 -1c0,0 -1,-1 -1,-1l0 0c-1,0 -1,1 -1,1l0 1 -1 0 0 -1c0,-1 1,-1 2,-1z"/>
  </g>
 </g>
</svg>
