<?xml version="1.0" encoding="UTF-8"?>
<!DOCTYPE svg PUBLIC "-//W3C//DTD SVG 1.1//EN" "http://www.w3.org/Graphics/SVG/1.1/DTD/svg11.dtd">
<!-- Creator: CorelDRAW X7 -->
<svg xmlns="http://www.w3.org/2000/svg" xml:space="preserve" width="0.417217in" height="0.485193in" version="1.1" style="shape-rendering:geometricPrecision; text-rendering:geometricPrecision; image-rendering:optimizeQuality; fill-rule:evenodd; clip-rule:evenodd"
viewBox="0 0 36 41"
 xmlns:xlink="http://www.w3.org/1999/xlink">
 <defs>
  <style type="text/css">
   <![CDATA[
    .fil0 {fill:gray}
   ]]>
  </style>
 </defs>
 <g id="Layer_x0020_1">
  <metadata id="CorelCorpID_0Corel-Layer"/>
  <path class="fil0" d="M25 7c6,3 11,9 11,17 0,9 -8,17 -18,17 -10,0 -18,-8 -18,-17 0,-8 5,-14 11,-17l0 7c-3,2 -5,5 -5,10 0,6 5,12 12,12 7,0 12,-6 12,-12 0,-5 -2,-8 -5,-10l0 -7zm-9 -7l3 0c1,0 2,1 2,2l0 20c0,1 -1,2 -2,2l-3 0c0,0 -1,-1 -1,-2l0 -20c0,-1 0,-2 1,-2z"/>
 </g>
</svg>
