<?xml version="1.0" encoding="UTF-8"?>
<!DOCTYPE svg PUBLIC "-//W3C//DTD SVG 1.1//EN" "http://www.w3.org/Graphics/SVG/1.1/DTD/svg11.dtd">
<!-- Creator: CorelDRAW X7 -->
<svg xmlns="http://www.w3.org/2000/svg" xml:space="preserve" width="0.365358in" height="0.520512in" version="1.1" style="shape-rendering:geometricPrecision; text-rendering:geometricPrecision; image-rendering:optimizeQuality; fill-rule:evenodd; clip-rule:evenodd"
viewBox="0 0 43 61"
 xmlns:xlink="http://www.w3.org/1999/xlink">
 <defs>
  <style type="text/css">
   <![CDATA[
    .fil0 {fill:gray}
   ]]>
  </style>
 </defs>
 <g id="Layer_x0020_1">
  <metadata id="CorelCorpID_0Corel-Layer"/>
  <g id="_1084793504">
   <path class="fil0" d="M0 23l43 0 0 38 -43 0 0 -38zm21 12c4,0 6,3 6,6 0,2 -1,4 -3,5l3 7 -11 0 3 -7c-2,-1 -3,-3 -3,-5 0,-3 2,-6 5,-6z"/>
   <path class="fil0" d="M21 0l0 0c8,0 15,6 15,14l0 9 -6 0 0 -8c0,-5 -4,-9 -9,-9l0 0c-5,0 -9,4 -9,9l0 8 -5 0 0 -9c0,-8 6,-14 14,-14z"/>
  </g>
 </g>
</svg>
