<?xml version="1.0" encoding="UTF-8"?>
<!DOCTYPE svg PUBLIC "-//W3C//DTD SVG 1.1//EN" "http://www.w3.org/Graphics/SVG/1.1/DTD/svg11.dtd">
<!-- Creator: CorelDRAW X7 -->
<svg xmlns="http://www.w3.org/2000/svg" xml:space="preserve" width="1.83819in" height="0.439583in" version="1.1" style="shape-rendering:geometricPrecision; text-rendering:geometricPrecision; image-rendering:optimizeQuality; fill-rule:evenodd; clip-rule:evenodd"
viewBox="0 0 344 82"
 xmlns:xlink="http://www.w3.org/1999/xlink">
 <defs>
  <style type="text/css">
   <![CDATA[
    .fil3 {fill:#333333}
    .fil2 {fill:#4D4D4D}
    .fil8 {fill:#666666}
    .fil6 {fill:#6B516B}
    .fil5 {fill:#735773}
    .fil7 {fill:#8C688C}
    .fil1 {fill:#B3B3B3}
    .fil0 {fill:#CCCCCC}
    .fil4 {fill:#E6E6E6}
    .fil9 {fill:white;fill-rule:nonzero}
   ]]>
  </style>
 </defs>
 <g id="Layer_x0020_1">
  <metadata id="CorelCorpID_0Corel-Layer"/>
  <g id="_1399990608">
   <g>
    <g>
     <polygon class="fil0" points="63,80 63,76 22,49 15,44 15,44 11,50 11,50 50,75 58,80 "/>
     <path class="fil1" d="M16 49l3 -7 27 -14c0,0 0,0 0,1l0 4 -26 17 -4 -1z"/>
    </g>
    <g>
     <polygon class="fil2" points="68,7 64,9 61,57 60,65 61,66 68,66 68,66 70,20 70,11 "/>
     <path class="fil3" d="M65 62l-8 1 -26 -16c0,0 0,0 1,0l4 -2 27 14 2 3z"/>
    </g>
    <polygon class="fil4" points="57,82 31,68 0,50 46,24 46,39 28,49 73,76 65,79 16,49 46,32 46,30 12,50 62,80 "/>
    <g>
     <polygon class="fil5" points="1,39 5,41 49,20 56,16 56,16 53,9 53,9 12,30 4,35 "/>
     <path class="fil6" d="M51 14l5 6 -1 30c0,0 0,0 -1,0l-4 -2 -1 -31 2 -3z"/>
    </g>
    <path class="fil7" d="M3 33l24 -15 33 -18 -1 52 -6 -3 0 -39 -51 29 1 -6zm48 15l-5 -3 0 -21 -46 26 1 -9 50 -27 0 34z"/>
    <polygon class="fil8" points="73,11 73,40 73,76 28,49 41,42 59,52 60,0 66,5 65,62 35,45 33,46 67,66 68,7 "/>
   </g>
   <path class="fil9" d="M104 40l3 0c4,0 7,-1 8,-2 2,-2 2,-4 2,-8 0,-1 0,-3 0,-4 0,-1 0,-2 0,-2 -1,-1 -1,-2 -1,-2 -1,-1 -1,-1 -2,-2 -1,0 -2,0 -3,0 -1,-1 -2,-1 -3,-1l-4 0 0 21zm-9 34l0 -61 15 0c6,0 9,2 12,5 2,2 3,7 3,12 0,5 -1,9 -4,12 -2,3 -6,4 -11,4l-6 0 0 28 -9 0z"/>
   <path id="1" class="fil9" d="M137 75c-1,0 -2,0 -3,-1 -1,0 -2,-1 -2,-2 -1,-1 -1,-2 -1,-3 -1,-1 -1,-2 -1,-3l0 -35 8 0 0 33c0,1 1,3 1,3 1,1 1,2 3,2 1,0 3,-1 5,-3l0 -35 8 0 0 43 -8 0 0 -4c-3,3 -7,5 -10,5z"/>
   <path id="2" class="fil9" d="M178 69c0,0 1,-1 1,-1 1,0 1,0 2,-1 0,-1 0,-1 0,-2 1,0 1,-1 1,-2 0,-1 0,-2 0,-3 0,-1 0,-2 0,-3l0 -10c0,-2 0,-3 0,-4 0,-1 0,-1 0,-2 -1,-1 -1,-2 -1,-3 -1,0 -1,-1 -2,-1 0,0 -1,-1 -2,-1 -1,0 -3,1 -5,3l0 28c2,1 4,2 6,2zm1 6c-2,0 -5,-1 -7,-4l0 3 -8 0 0 -61 8 0 0 21c2,-2 5,-4 8,-4 1,0 3,0 4,1 1,0 1,1 2,1 1,1 1,2 2,3 0,1 1,2 1,3 0,1 1,2 1,3 0,1 0,2 0,3 0,1 0,2 0,3l0 10c0,12 -4,18 -11,18z"/>
   <polygon id="3" class="fil9" points="198,74 198,13 206,13 206,74 "/>
   <path id="4" class="fil9" d="M215 24l0 -8 8 0 0 8 -8 0zm0 50l0 -43 8 0 0 43 -8 0z"/>
   <path id="5" class="fil9" d="M242 75c-4,0 -6,-1 -9,-3 -2,-3 -3,-6 -3,-9l6 -2c1,2 1,5 2,6 1,1 3,2 4,2 2,0 3,0 4,-1 1,-1 1,-3 1,-4 0,-2 -1,-4 -3,-6l-8 -6c-2,-2 -3,-4 -4,-5 -1,-2 -1,-4 -1,-6 0,-4 1,-6 3,-8 2,-2 5,-3 8,-3 3,0 6,1 8,3 2,3 3,5 3,9l-5 2c-1,-3 -1,-5 -2,-6 -1,-1 -2,-2 -4,-2 -1,0 -2,1 -3,1 -1,1 -1,2 -1,4 0,1 1,3 2,4l8 7c2,2 3,3 4,5 1,2 2,4 2,7 0,3 -1,6 -3,8 -2,2 -5,3 -9,3z"/>
   <path id="6" class="fil9" d="M260 74l0 -61 8 0 0 22c4,-3 7,-5 11,-5 1,0 2,0 3,1 1,0 2,1 2,2 1,1 1,2 1,3 1,1 1,2 1,3l0 35 -8 0 0 -33c0,-1 -1,-2 -1,-3 -1,-1 -1,-2 -3,-2 -1,0 -3,1 -6,3l0 35 -8 0z"/>
   <path id="7" class="fil9" d="M301 48l9 0 0 -4c0,-1 0,-2 0,-3 0,0 0,-1 0,-2 -1,-1 -1,-1 -1,-2 0,0 -1,0 -1,-1 -1,0 -2,0 -2,0 -2,0 -4,1 -4,2 -1,2 -1,4 -1,8l0 2zm5 27c-3,0 -5,0 -7,-1 -1,-1 -3,-2 -4,-4 -1,-1 -1,-3 -2,-5 0,-2 0,-4 0,-7l0 -10c0,-3 0,-6 0,-8 1,-2 1,-4 2,-5 1,-2 3,-3 4,-4 2,0 4,-1 7,-1 1,0 3,0 4,1 1,0 2,0 3,1 1,0 1,1 2,2 1,1 1,2 2,3 0,1 0,2 0,3 1,2 1,3 1,4 0,2 0,3 0,5l0 4 -17 0 0 5c0,1 0,1 0,1 0,1 0,2 0,3 0,0 0,1 0,2 0,1 0,2 0,2 1,1 1,1 1,2 1,0 1,0 2,1 0,0 1,0 2,0 1,0 2,-1 3,-2 1,-1 1,-3 1,-5l0 -3 8 0 0 2c0,9 -4,14 -12,14z"/>
   <path id="8" class="fil9" d="M325 74l0 -43 8 0 0 6c2,-3 4,-4 5,-5 2,-1 3,-2 5,-2 1,0 1,0 1,0l0 9c-1,0 -3,-1 -4,-1 -1,0 -2,1 -4,1 -1,1 -2,2 -3,3l0 32 -8 0z"/>
  </g>
 </g>
</svg>
