<?xml version="1.0" encoding="UTF-8"?>
<!DOCTYPE svg PUBLIC "-//W3C//DTD SVG 1.1//EN" "http://www.w3.org/Graphics/SVG/1.1/DTD/svg11.dtd">
<!-- Creator: CorelDRAW X7 -->
<svg xmlns="http://www.w3.org/2000/svg" xml:space="preserve" width="0.425602in" height="0.445874in" version="1.1" style="shape-rendering:geometricPrecision; text-rendering:geometricPrecision; image-rendering:optimizeQuality; fill-rule:evenodd; clip-rule:evenodd"
viewBox="0 0 81 85"
 xmlns:xlink="http://www.w3.org/1999/xlink">
 <defs>
  <style type="text/css">
   <![CDATA[
    .fil0 {fill:gray}
   ]]>
  </style>
 </defs>
 <g id="Layer_x0020_1">
  <metadata id="CorelCorpID_0Corel-Layer"/>
  <path class="fil0" d="M50 14c4,1 8,3 11,6l10 -5c1,-1 2,-1 3,1l7 11c1,1 0,3 -1,4l-10 5c0,2 1,4 1,7 0,2 -1,4 -1,6l10 5c1,1 2,3 1,4l-7 12c-1,1 -2,1 -3,1l-10 -6c-3,3 -7,5 -11,6l0 11c0,2 -1,3 -3,3l-13 0c-2,0 -3,-1 -3,-3l0 -11c-4,-1 -7,-3 -10,-6l-10 6c-2,0 -3,0 -4,-1l-7 -12c0,-1 0,-3 1,-4l10 -5c0,-2 0,-4 0,-6 0,-3 0,-5 0,-7l-10 -5c-1,-1 -1,-3 -1,-4l7 -11c1,-2 2,-2 4,-1l10 5c3,-3 6,-5 10,-6l0 -11c0,-2 1,-3 3,-3l13 0c2,0 3,1 3,3l0 11zm-9 14c8,0 14,7 14,15 0,7 -6,14 -14,14 -8,0 -15,-7 -15,-14 0,-8 7,-15 15,-15z"/>
 </g>
</svg>
